<?xml version="1.0" encoding="utf-8"?>
<!-- Generator: Adobe Illustrator 16.0.0, SVG Export Plug-In . SVG Version: 6.00 Build 0)  -->
<!DOCTYPE svg PUBLIC "-//W3C//DTD SVG 1.1//EN" "http://www.w3.org/Graphics/SVG/1.1/DTD/svg11.dtd">
<svg version="1.1" id="Layer_1" xmlns="http://www.w3.org/2000/svg" xmlns:xlink="http://www.w3.org/1999/xlink" x="0px" y="0px"
	 width="108px" height="108px" viewBox="0 0 108 108" enable-background="new 0 0 108 108" xml:space="preserve">
<g transform="translate(0.5 0.5) scale(0.68) translate(-0.5 -0.5)">
	<g transform="scale(0.015625)">
		<path id="symbol" fill="#FFFFFF" d="M6015.364,3743.995c-201.93-403.814-618.015-404.825-1090.441-268.612l-224.357-581.48
			l-353.998,136.489l218.474,566.268c-93.061,35.8-187.454,74.356-281.204,112.684l-219.807-569.99l-353.814,136.489
			l224.081,581.388c-76.057,31.112-150.735,61.581-224.173,89.936l-0.689-1.792l-488.327,188.097l145.864,378.033
			c0,0,259.467-105.79,257.031-99.265c143.383-55.239,222.197,10.019,263.373,76.608l255.561,662.454
			c9.972-3.677,22.978-8.18,38.373-11.856c-11.811,4.412-24.449,9.191-37.316,14.43L4501.669,6082
			c11.259,47.61,12.316,129.779-87.684,168.566c5.974,2.298-257.399,99.173-257.399,99.173l92.739,449.816l460.662-177.574
			c85.662-32.997,170.772-63.971,253.723-95.497l226.93,588.144l353.492-136.305l-224.265-581.893
			c97.886-35.478,192.096-70.864,283.732-106.434l223.345,579.412l353.953-136.581l-226.378-587.224
			c582.077-263.511,940.809-574.265,777.021-1153.033c-131.893-466.131-420.956-585.202-790.073-536.121
			C6106.356,4272.809,6163.709,4039.215,6015.364,3743.995L6015.364,3743.995z M6005.162,5192.662
			c169.669,439.338-602.298,679.779-842.003,772.426l-300.506-779.32C5102.726,5093.306,5828.323,4734.16,6005.162,5192.662z
			 M5416.467,4156.679c154.044,399.862-491.498,595.267-691.36,672.38l-272.564-706.801
			C4652.358,4045.098,5255.529,3739.491,5416.467,4156.679z"/>
	</g>
</g>
</svg>
