<?xml version="1.0" encoding="UTF-8" standalone="no"?>
<svg
   xmlns:dc="http://purl.org/dc/elements/1.1/"
   xmlns:cc="http://creativecommons.org/ns#"
   xmlns:rdf="http://www.w3.org/1999/02/22-rdf-syntax-ns#"
   xmlns:svg="http://www.w3.org/2000/svg"
   xmlns="http://www.w3.org/2000/svg"
   xmlns:sodipodi="http://sodipodi.sourceforge.net/DTD/sodipodi-0.dtd"
   xmlns:inkscape="http://www.inkscape.org/namespaces/inkscape"
   version="1.1"
   width="19"
   height="24"
   viewBox="0 0 0.5135135 0.5"
   preserveAspectRatio="xMidYMid"
   id="svg2"
   inkscape:version="0.48.4 r9939"
   sodipodi:docname="stat_notify_received.svg">
  <metadata
     id="metadata10">
    <rdf:RDF>
      <cc:Work
         rdf:about="">
        <dc:format>image/svg+xml</dc:format>
        <dc:type
           rdf:resource="http://purl.org/dc/dcmitype/StillImage" />
      </cc:Work>
    </rdf:RDF>
  </metadata>
  <defs
     id="defs8" />
  <sodipodi:namedview
     pagecolor="#ffffff"
     bordercolor="#666666"
     borderopacity="1"
     objecttolerance="10"
     gridtolerance="10"
     guidetolerance="10"
     inkscape:pageopacity="0"
     inkscape:pageshadow="2"
     inkscape:window-width="1378"
     inkscape:window-height="897"
     id="namedview6"
     showgrid="false"
     inkscape:zoom="4.9166667"
     inkscape:cx="0.5298704"
     inkscape:cy="24.550249"
     inkscape:window-x="0"
     inkscape:window-y="0"
     inkscape:window-maximized="0"
     inkscape:current-layer="svg2"
     fit-margin-top="0"
     fit-margin-left="0"
     fit-margin-right="0"
     fit-margin-bottom="0" />
  <path
     d="m 0.43418596,0.08901477 c -0.0196368,-0.066028 -0.0821405,-0.0772214 -0.15673881,-0.0692966 l -0.0182657,-0.0933424 -0.0568157,0.0111231 0.0177858,0.0908819 c -0.014936,0.002924 -0.0301462,0.006207 -0.0452558,0.009478 l -0.0178918,-0.0914859 -0.0567867,0.0111093 0.0182376,0.0933202 c -0.012252,0.002658 -0.02428755,0.00525 -0.0360653,0.007563 L 0.08232548,0.05807739 0.00395574,0.0733838 0.01584383,0.13406329 c 0,0 0.04180067,-0.009009 0.04125437,-0.0081 0.0230153,-0.004496 0.03311965,0.007399 0.0375542,0.018502 l 0.0208113,0.10633593 c 0.00159,-3.0212e-4 0.003674,-6.415e-4 0.006083,-7.79e-4 -0.001892,3.7314e-4 -0.003921,7.5649e-4 -0.006001,0.001182 L 0.144679,0.40017462 c 4.072e-4,0.00744 -0.00159,0.0198216 -0.0176641,0.0229956 8.53e-4,5.02e-4 -0.0413037,0.00807 -0.0413037,0.00807 l 0.0019875,0.070063 0.07393871,-0.01447 c 0.0137626,-0.00268 0.027347,-0.00509 0.0406546,-0.00761 l 0.0184958,0.094401 0.0567576,-0.011097 -0.0182783,-0.093407 c 0.0156466,-0.00273 0.0307519,-0.00555 0.0454723,-0.00845 l 0.0181677,0.092982 0.0568159,-0.011122 -0.0184211,-0.094241 c 0.0944484,-0.024171 0.15659555,-0.0613169 0.14734625,-0.15264184 -0.00743,-0.0735403 -0.0477126,-0.099121 -0.10448307,-0.10153243 0.0296594,-0.0232194 0.0444718,-0.0568042 0.0300202,-0.10510301 z m -0.0399932,0.21741441 c 0.0138356,0.0705436 -0.10853428,0.0861553 -0.14703343,0.0937261 l -0.0244595,-0.1250844 c 0.0385194,-0.007528 0.15709972,-0.0422276 0.17149298,0.0313583 z M 0.33323848,0.13512651 c 0.0125408,0.0641896 -0.0896697,0.0764116 -0.12174321,0.0826899 L 0.18930177,0.10437248 c 0.0320735,-0.006278 0.13083042,-0.0361917 0.14393669,0.030754 z"
     style="fill:#241c1c"
     id="path4"
     inkscape:connector-curvature="0" />
</svg>
